<svg xmlns="http://www.w3.org/2000/svg" xmlns:xlink="http://www.w3.org/1999/xlink" id="_404_Error_with_a_cute_animal-bro" width="196.445" height="161.98" data-name="404 Error with a cute animal-bro" viewBox="0 0 196.445 161.98"><defs><style>.cls-1,.cls-12,.cls-2,.cls-5,.cls-8{fill:#fff}.cls-1,.cls-10,.cls-13,.cls-18,.cls-19,.cls-2,.cls-20,.cls-3,.cls-9{stroke:#263238}.cls-1,.cls-10,.cls-13,.cls-19,.cls-20,.cls-9{stroke-linecap:round}.cls-1,.cls-10,.cls-13,.cls-19,.cls-9{stroke-linejoin:round}.cls-1,.cls-10,.cls-13,.cls-18,.cls-2,.cls-20,.cls-3,.cls-9{stroke-width:1.113px}.cls-18,.cls-2,.cls-20,.cls-3{stroke-miterlimit:10}.cls-19,.cls-20,.cls-3,.cls-9{fill:none}.cls-10,.cls-21,.cls-4{fill:#263238}.cls-6{clip-path:url(#clip-path)}.cls-13,.cls-18,.cls-7{fill:#696ce4}.cls-8{opacity:.3}.cls-11{clip-path:url(#clip-path-2)}.cls-12{opacity:.5}.cls-14{clip-path:url(#clip-path-3)}.cls-15{clip-path:url(#clip-path-4)}.cls-16{clip-path:url(#clip-path-5)}.cls-17{clip-path:url(#clip-path-6)}.cls-19{stroke-width:3.34px}.cls-21{font-size:8px;font-family:BebasNeue-Regular,Bebas Neue}</style><clipPath id="clip-path"><circle id="Ellipse_21" cx="17.039" cy="17.039" r="17.039" class="cls-1" data-name="Ellipse 21"/></clipPath><clipPath id="clip-path-2"><path id="Path_149" d="M209.75,306.182c-10.592,0-16.958-9.4-19.219-17.663l-.076-.29a3.112,3.112,0,1,1,6.019-1.565l.057.214c1.718,6.29,6.4,13.48,13.9,13.066a10.068,10.068,0,0,0,7.366-3.592c4.116-4.72,5.957-14.984,5.548-20.161a2.489,2.489,0,1,1,4.958-.395c.476,5.762-.152,18.148-5.819,24.643a16.231,16.231,0,0,1-11.7,5.71C210.435,306.173,210.087,306.182,209.75,306.182Z" class="cls-1" data-name="Path 149" transform="translate(-190.323 -273.414)"/></clipPath><clipPath id="clip-path-3"><path id="Path_161" d="M213.051,206.011s-4.62,13.38-2.132,23.791a20.351,20.351,0,0,0,11.605,13.851s-6.752,2.379-5.234,6.038,7.337,1.3,9.236.119a12.583,12.583,0,0,0,4.615-7.1,17,17,0,0,0,.238-3.669s7.694-.828,12.9-5.091c0,0,4.62,3.669,7.937,2.96s8.051-6.633,7.575-11.957-3.545-5.32-5.42-4.511a7.613,7.613,0,0,0-2.608,1.656s2.722-3.331,0-7.932a10.349,10.349,0,0,0-7.58-4.972s-1.427-7.58-5.681-10.421S219.089,192.988,213.051,206.011Z" class="cls-1" data-name="Path 161" transform="translate(-210.183 -196.326)"/></clipPath><clipPath id="clip-path-4"><path id="Path_177" d="M189.518,202.483s-4.972,6.985-5.681,14.089.119,11.839,2.251,13.618a3.487,3.487,0,0,0,5.443-.595c1.185-1.661-.709-7.461-.709-7.461a39.7,39.7,0,0,1,5.091-9.469c3.079-3.907,3.669-4.5,3.669-4.5S194.252,202.126,189.518,202.483Z" class="cls-1" data-name="Path 177" transform="translate(-183.588 -202.468)"/></clipPath><clipPath id="clip-path-5"><path id="Path_186" d="M267.506,195.25s5.634,6.462,7.037,13.466,1.047,11.8-.9,13.77a3.491,3.491,0,0,1-5.477-.057c-1.342-1.537,0-7.489,0-7.489a39.79,39.79,0,0,0-6-8.931c-3.445-3.588-4.1-4.116-4.1-4.116S262.757,195.359,267.506,195.25Z" class="cls-1" data-name="Path 186" transform="translate(-258.07 -195.25)"/></clipPath><clipPath id="clip-path-6"><path id="Path_197" d="M183.819,167.555s-1.466,4.944-.914,6.957,3.112.186,5.677,2.379,4.939,6.152,14.651,6.885,15.574-4.506,17.606-7.437,1.832-6.409,5.31-6.59.552-6.961-.547-8.06c0,0,6.776-10.073,6.776-12.638s-6.409-2.017-14.275.366c0,0-5.862-3.117-16.487-1.285s-13.737,4.949-13.737,4.949-13.19,1.646-14.1,3.293S175.577,164.99,183.819,167.555Z" class="cls-2" data-name="Path 197" transform="translate(-173.605 -147.362)"/></clipPath></defs><g id="freepik--Floor--inject-66" transform="translate(0.795 138.103)"><line id="Line_5" x1="4.368" class="cls-3" data-name="Line 5"/><line id="Line_6" x1="170.022" class="cls-3" data-name="Line 6" transform="translate(11.277)"/></g><g id="freepik--yarn-ball--inject-66" transform="translate(25.873 121.802)"><ellipse id="Ellipse_19" cx="14.46" cy="3.978" class="cls-4" data-name="Ellipse 19" rx="14.46" ry="3.978" transform="translate(77.791 26.608)"/><path id="Path_105" d="M129.707,413.746c-15.05,0-17.272-2.174-17.491-3.93a2.379,2.379,0,0,1,.685-2.013c4.054-4.254,27.417-2.455,59.745.033,4.511.347,9.174.7,13.956,1.061,32.665,2.427,45.817,2.113,48.534-1.171a2.749,2.749,0,0,0,.362-2.641c-1.294-4.734-18.6-4.758-25.147-4.387a.571.571,0,0,1-.6-.533.562.562,0,0,1,.533-.595c2.508-.147,24.538-1.256,26.3,5.234a3.824,3.824,0,0,1-.581,3.659c-3.05,3.7-15.536,4.1-49.486,1.575-4.787-.357-9.45-.714-13.961-1.061-30.814-2.379-55.158-4.249-58.84-.381a1.261,1.261,0,0,0-.381,1.09c.138,1.123,2.855,3.635,24.743,2.76,12.243-.476,24.543-1.822,24.667-1.837a.566.566,0,0,1,.124,1.123c-.124,0-12.462,1.351-24.743,1.841C134.97,413.689,132.172,413.746,129.707,413.746Z" class="cls-2" data-name="Path 105" transform="translate(-112.194 -374.124)"/><circle id="Ellipse_20" cx="17.039" cy="17.039" r="17.039" class="cls-5" data-name="Ellipse 20" transform="translate(69.835)"/><g id="Group_62" class="cls-6" data-name="Group 62" transform="translate(69.835)"><path id="Path_106" d="M282.085,388.536A17.035,17.035,0,0,0,296.16,361.89c-.186,7.423-4.282,18.381-25.59,22.15A16.973,16.973,0,0,0,282.085,388.536Z" class="cls-7" data-name="Path 106" transform="translate(-265.046 -354.458)"/><path id="Path_107" d="M282.085,388.536A17.035,17.035,0,0,0,296.16,361.89c-.186,7.423-4.282,18.381-25.59,22.15A16.973,16.973,0,0,0,282.085,388.536Z" class="cls-8" data-name="Path 107" transform="translate(-265.046 -354.458)"/><path id="Path_108" d="M294.411,369.99a27.093,27.093,0,0,0-10.773-6.428,27.093,27.093,0,0,1,10.773,6.428h.9a31.294,31.294,0,0,0,5.134-6.69c-7.98-8.432-15.74-7.57-15.74-7.57s7.784-.861,15.764,7.58c.438-.785.8-1.523,1.1-2.2-3.321-4.654-9.041-7.827-12.11-8.3l-.714-.171a10.1,10.1,0,0,0-3.331-.048,10.106,10.106,0,0,1,3.331.048l2.032-5.71a17.039,17.039,0,0,0-2.936-.566c-1.318,2.127-4.711,8.922-4.711,22.4,0-13.48,3.393-20.275,4.711-22.4-.571-.052-1.142-.086-1.727-.086a17.187,17.187,0,0,0-1.927.114,39.853,39.853,0,0,0-6.1,20.97A49.709,49.709,0,0,0,294.411,369.99Zm3.849-3.469a23.988,23.988,0,0,0-14.275-6.961A23.988,23.988,0,0,1,298.26,366.521Z" class="cls-9" data-name="Path 108" transform="translate(-268.987 -346.27)"/><path id="Path_109" d="M273.264,367.54a39.854,39.854,0,0,1,6.1-20.97,17.047,17.047,0,0,0-4.573,1.171,33.96,33.96,0,0,0-5.876,17.891,31.025,31.025,0,0,0,4.344,1.908Z" class="cls-9" data-name="Path 109" transform="translate(-264.181 -346.427)"/><path id="Path_110" d="M269.675,349a17.073,17.073,0,0,0-10.525,14.617,21.942,21.942,0,0,0,4.649,3.274A33.96,33.96,0,0,1,269.675,349Z" class="cls-9" data-name="Path 110" transform="translate(-259.06 -347.701)"/><path id="Path_111" d="M313.279,361.882a21.035,21.035,0,0,0,.952-2.522A17.131,17.131,0,0,0,310.6,352.8l-1.318,4.4,1.294-4.4a17.132,17.132,0,0,0-3.592-3.055l-1.451,5.429,1.461-5.405a16.868,16.868,0,0,0-4.5-2.022l-2.032,5.71C303.572,353.907,308.383,355.739,313.279,361.882Z" class="cls-9" data-name="Path 111" transform="translate(-280.713 -347.046)"/><path id="Path_112" d="M306.286,377.68v-.742a17.065,17.065,0,0,0-.685-4.786,21.019,21.019,0,0,1-.952,2.521h0a10.789,10.789,0,0,1-.723,1.456c.029.029-.409.719-.381.747a5.724,5.724,0,0,1-.476.828,61.661,61.661,0,0,1-4.492,5.867c-.057,0-1.846,1.623-2.822,2.441h0a47.005,47.005,0,0,1-5.658,4.021h0a59.042,59.042,0,0,1-6.038,3.188,17.131,17.131,0,0,0,5.144.79h.856C293.548,392.112,299.091,387.782,306.286,377.68Z" class="cls-9" data-name="Path 112" transform="translate(-272.117 -359.836)"/><path id="Path_113" d="M312.927,383.77c-7.194,10.1-12.738,14.432-16.2,16.287A17.073,17.073,0,0,0,312.927,383.77Z" class="cls-9" data-name="Path 113" transform="translate(-278.758 -365.927)"/><path id="Path_114" d="M266.89,404.57a17.063,17.063,0,0,0,8.2,5.643,59.036,59.036,0,0,0,6.038-3.188C277.063,407.777,270.706,405.912,266.89,404.57Z" class="cls-9" data-name="Path 114" transform="translate(-263.117 -376.829)"/><path id="Path_115" d="M277.641,400.117A47.007,47.007,0,0,0,283.3,396.1c-12.272,1.256-19.842-2.546-23.058-4.706a17.016,17.016,0,0,0,3.164,6.271C267.22,399,273.577,400.868,277.641,400.117Z" class="cls-9" data-name="Path 115" transform="translate(-259.631 -369.921)"/><path id="Path_116" d="M282.675,390c.975-.818,1.856-1.637,2.66-2.446h-.9c.067.062.133.124.2.19-.062-.067-.128-.128-.2-.19a50.807,50.807,0,0,1-16.34-2.608h0c-5.848-2.027-7.956-4.206-8.993-5.182-.029.39-.048.776-.048,1.171a17.175,17.175,0,0,0,.566,4.368C262.833,387.459,270.4,391.261,282.675,390Z" class="cls-9" data-name="Path 116" transform="translate(-259.007 -363.83)"/></g><circle id="Ellipse_22" cx="17.039" cy="17.039" r="17.039" class="cls-9" data-name="Ellipse 22" transform="translate(69.835)"/></g><g id="freepik--Plants--inject-66" transform="translate(119.195 73.063)"><path id="Path_117" d="M333.258,314.5s-1.166-3.783-4.563-5.144c-2.379-.952-5.077-.695-7.528-.271-4.558.795-8.536,2.608-12.847,4.154,0,0,1.846-.68,9.417,3.012a20.4,20.4,0,0,0,9.164,2.341C329.456,318.531,333.386,317.8,333.258,314.5Z" class="cls-7" data-name="Path 117" transform="translate(-308.32 -277.839)"/><path id="Path_118" d="M335.7,287.692s0-3.964-2.855-6.243c-1.989-1.589-4.663-2.136-7.137-2.436-4.6-.557-8.926.029-13.513.262,0,0,1.965-.114,8.146,5.605a20.465,20.465,0,0,0,8.089,4.887C330.89,290.452,334.858,290.89,335.7,287.692Z" class="cls-7" data-name="Path 118" transform="translate(-310.349 -262.155)"/><path id="Path_119" d="M374.588,302.358s-3.088-2.479-3.1-6.138c0-2.546,1.223-4.977,2.522-7.095,2.417-3.949,5.567-6.976,8.6-10.425,0,0-1.313,1.466-.676,9.864a20.33,20.33,0,0,1-1.2,9.383C379.76,300.307,377.633,303.69,374.588,302.358Z" class="cls-7" data-name="Path 119" transform="translate(-341.432 -262.113)"/><path id="Path_120" d="M400.969,329s-.438-3.935,2.141-6.533c1.789-1.8,4.382-2.66,6.795-3.24,4.5-1.085,8.869-1,13.452-1.3,0,0-1.96.109-7.442,6.5a20.137,20.137,0,0,1-7.48,5.8C406.079,331.186,402.187,332.076,400.969,329Z" class="cls-7" data-name="Path 120" transform="translate(-356.87 -282.671)"/><path id="Path_121" d="M391.492,284.809s-3.926-.538-5.81-3.673c-1.313-2.179-1.508-4.9-1.485-7.385.048-4.625,1.2-8.846,2.032-13.361,0,0-.376,1.932,4.487,8.807a20.857,20.857,0,0,1,3.807,8.674C394.861,280.408,394.771,284.4,391.492,284.809Z" class="cls-7" data-name="Path 121" transform="translate(-348.092 -252.515)"/><path id="Path_122" d="M422.745,285.1s2.822,2.779,6.457,2.379c2.527-.29,4.8-1.8,6.752-3.331,3.635-2.855,6.276-6.347,9.345-9.759,0,0-1.3,1.47-9.716,1.818A20.352,20.352,0,0,0,426.4,278.5C424.177,279.748,421.07,282.255,422.745,285.1Z" class="cls-7" data-name="Path 122" transform="translate(-368.049 -259.854)"/><path id="Path_123" d="M414.013,266.342s3.94.395,6.509-2.208c1.789-1.813,2.617-4.411,3.174-6.833,1.037-4.506.914-8.879,1.161-13.461,0,0-.086,1.96-6.428,7.508a20.326,20.326,0,0,0-5.71,7.537C411.772,261.269,410.92,265.171,414.013,266.342Z" class="cls-7" data-name="Path 123" transform="translate(-362.586 -243.84)"/><path id="Path_124" d="M370.691,331.966l-6.8-16.744L356.04,295.86" class="cls-9" data-name="Path 124" transform="translate(-333.334 -271.108)"/><path id="Path_125" d="M390.13,324.191l6.8-23.282,7.328-14.389" class="cls-9" data-name="Path 125" transform="translate(-351.203 -266.212)"/><line id="Line_7" x2="6.804" y1="3.926" class="cls-9" data-name="Line 7" transform="translate(41.54 44.899)"/><line id="Line_8" x1="3.402" y1="7.589" class="cls-9" data-name="Line 8" transform="translate(42.325 27.108)"/><line id="Line_9" x2="8.298" y1="3.702" class="cls-9" data-name="Line 9" transform="translate(49.985 23.444)"/><line id="Line_10" x2="2.879" y1="11.51" class="cls-9" data-name="Line 10" transform="translate(31.861 35.744)"/><line id="Line_11" x1="6.647" y1="3.545" class="cls-9" data-name="Line 11" transform="translate(21.398 34.959)"/><path id="Path_126" d="M381.381,374.056h-5.672a3.983,3.983,0,0,1-3.911-3.24L369.78,360.19h17.529L385.3,370.815a3.988,3.988,0,0,1-3.916,3.24Z" class="cls-10" data-name="Path 126" transform="translate(-340.536 -304.828)"/></g><g id="freepik--Character--inject-66"><path id="Path_146" d="M209.75,306.182c-10.592,0-16.958-9.4-19.219-17.663l-.076-.29a3.112,3.112,0,1,1,6.019-1.565l.057.214c1.718,6.29,6.4,13.48,13.9,13.066a10.068,10.068,0,0,0,7.366-3.592c4.116-4.72,5.957-14.984,5.548-20.161a2.489,2.489,0,1,1,4.958-.395c.476,5.762-.152,18.148-5.819,24.643a16.231,16.231,0,0,1-11.7,5.71C210.435,306.173,210.087,306.182,209.75,306.182Z" class="cls-5" data-name="Path 146" transform="translate(-127.274 -186.279)"/><g id="Group_63" class="cls-11" data-name="Group 63" transform="translate(63.049 87.135)"><path id="Path_147" d="M234.024,273.611a2.489,2.489,0,0,0-2.279,2.679,35.3,35.3,0,0,1-1.013,9.992,11,11,0,0,1,3.7.476,19.68,19.68,0,0,1-3.635,9.93,17.979,17.979,0,0,1-16.939,7.7,23.553,23.553,0,0,1-7.5-2.907,16.935,16.935,0,0,0,11.8,4.811c.338,0,.685,0,1.033-.029a16.23,16.23,0,0,0,11.7-5.71c5.667-6.495,6.276-18.881,5.819-24.643a2.484,2.484,0,0,0-2.679-2.3Z" class="cls-7" data-name="Path 147" transform="translate(-198.724 -273.513)"/><path id="Path_148" d="M234.024,273.611a2.489,2.489,0,0,0-2.279,2.679,35.3,35.3,0,0,1-1.013,9.992,11,11,0,0,1,3.7.476,19.68,19.68,0,0,1-3.635,9.93,17.979,17.979,0,0,1-16.939,7.7,23.553,23.553,0,0,1-7.5-2.907,16.935,16.935,0,0,0,11.8,4.811c.338,0,.685,0,1.033-.029a16.23,16.23,0,0,0,11.7-5.71c5.667-6.495,6.276-18.881,5.819-24.643a2.484,2.484,0,0,0-2.679-2.3Z" class="cls-12" data-name="Path 148" transform="translate(-198.724 -273.513)"/></g><path id="Path_150" d="M209.75,306.182c-10.592,0-16.958-9.4-19.219-17.663l-.076-.29a3.112,3.112,0,1,1,6.019-1.565l.057.214c1.718,6.29,6.4,13.48,13.9,13.066a10.068,10.068,0,0,0,7.366-3.592c4.116-4.72,5.957-14.984,5.548-20.161a2.489,2.489,0,1,1,4.958-.395c.476,5.762-.152,18.148-5.819,24.643a16.231,16.231,0,0,1-11.7,5.71C210.435,306.173,210.087,306.182,209.75,306.182Z" class="cls-9" data-name="Path 150" transform="translate(-127.274 -186.279)"/><path id="Path_151" d="M212.942,328.344c.252-1.166-2.536.657-4.872,2.355a18.249,18.249,0,0,0,2.779,1.937A17.744,17.744,0,0,0,212.942,328.344Z" class="cls-13" data-name="Path 151" transform="translate(-136.577 -214.879)"/><path id="Path_152" d="M228.964,337.2c.338,0,.685,0,1.033-.029a18.034,18.034,0,0,0,3-.424c-1.313-1.713-3.121-3.978-3.64-4.149-.595-.2-1.742,2.717-2.379,4.487A16.966,16.966,0,0,0,228.964,337.2Z" class="cls-13" data-name="Path 152" transform="translate(-146.489 -217.297)"/><path id="Path_153" d="M196.531,298.784l-.057-.214a3.112,3.112,0,1,0-6.019,1.565l.076.29a30.5,30.5,0,0,0,3.616,8.217l5.667-2.7a23.71,23.71,0,0,1-3.283-7.161Z" class="cls-13" data-name="Path 153" transform="translate(-127.274 -198.185)"/><path id="Path_154" d="M252.729,326.942a16.04,16.04,0,0,0,1.209-1.589c-1.8-.614-4.492-1.461-5.491-1.37-1.185.109.423,3.916,1.251,5.71A17.491,17.491,0,0,0,252.729,326.942Z" class="cls-13" data-name="Path 154" transform="translate(-157.521 -212.782)"/><path id="Path_155" d="M258.108,307.336c-.19.381,2.136,2.075,3.707,3.164a35.843,35.843,0,0,0,1.2-4.53C261.11,306.351,258.293,306.965,258.108,307.336Z" class="cls-13" data-name="Path 155" transform="translate(-162.8 -203.344)"/><path id="Path_156" d="M266.286,289.82c.1-1.356.157-2.65.162-3.84-1.637.9-3.578,2.146-3.578,2.964S264.688,289.863,266.286,289.82Z" class="cls-13" data-name="Path 156" transform="translate(-165.302 -192.866)"/><path id="Path_157" d="M213.051,206.011s-4.62,13.38-2.132,23.791a20.351,20.351,0,0,0,11.605,13.851s-6.752,2.379-5.234,6.038,7.337,1.3,9.236.119a12.583,12.583,0,0,0,4.615-7.1,17,17,0,0,0,.238-3.669s7.694-.828,12.9-5.091c0,0,4.62,3.669,7.937,2.96s8.051-6.633,7.575-11.957-3.545-5.32-5.42-4.511a7.613,7.613,0,0,0-2.608,1.656s2.722-3.331,0-7.932a10.349,10.349,0,0,0-7.58-4.972s-1.427-7.58-5.681-10.421S219.089,192.988,213.051,206.011Z" class="cls-5" data-name="Path 157" transform="translate(-137.685 -145.871)"/><g id="Group_64" class="cls-14" data-name="Group 64" transform="translate(72.499 50.455)"><path id="Path_158" d="M248.279,210.635a26.836,26.836,0,0,1-20.87,12.952c-9.421.828-14.7-1.028-17.13-2.317a60.428,60.428,0,0,1,2.855-15.226c6.038-13.023,21.193-10.064,25.457-7.223s5.681,10.421,5.681,10.421A10.173,10.173,0,0,1,248.279,210.635Zm6.148,9.826a7.613,7.613,0,0,0-2.608,1.656,6.214,6.214,0,0,0,1.109-2.684c-6.4,3.188-5.9,9.992-6.695,9.992-.98,0-1.466-3.421-1.466-3.421s-1.223,4.887-8.565,8.313-15.645.733-15.645.733,1.713,3.911-2.688,3.421a7.265,7.265,0,0,1-3.44-1.256,20.374,20.374,0,0,0,8.137,6.443s-6.752,2.379-5.234,6.038,7.342,1.3,9.236.119a12.607,12.607,0,0,0,4.616-7.1,17,17,0,0,0,.238-3.669s7.694-.828,12.9-5.091c0,0,4.62,3.669,7.937,2.96s8.051-6.633,7.575-11.958S256.3,219.652,254.427,220.461Z" class="cls-7" data-name="Path 158" transform="translate(-210.234 -196.349)"/><path id="Path_159" d="M248.279,210.635a26.836,26.836,0,0,1-20.87,12.952c-9.421.828-14.7-1.028-17.13-2.317a60.428,60.428,0,0,1,2.855-15.226c6.038-13.023,21.193-10.064,25.457-7.223s5.681,10.421,5.681,10.421A10.173,10.173,0,0,1,248.279,210.635Zm6.148,9.826a7.613,7.613,0,0,0-2.608,1.656,6.214,6.214,0,0,0,1.109-2.684c-6.4,3.188-5.9,9.992-6.695,9.992-.98,0-1.466-3.421-1.466-3.421s-1.223,4.887-8.565,8.313-15.645.733-15.645.733,1.713,3.911-2.688,3.421a7.265,7.265,0,0,1-3.44-1.256,20.374,20.374,0,0,0,8.137,6.443s-6.752,2.379-5.234,6.038,7.342,1.3,9.236.119a12.607,12.607,0,0,0,4.616-7.1,17,17,0,0,0,.238-3.669s7.694-.828,12.9-5.091c0,0,4.62,3.669,7.937,2.96s8.051-6.633,7.575-11.958S256.3,219.652,254.427,220.461Z" class="cls-12" data-name="Path 159" transform="translate(-210.234 -196.349)"/><path id="Path_160" d="M240.024,279.343A16.711,16.711,0,0,1,226.63,273.2" class="cls-9" data-name="Path 160" transform="translate(-218.804 -236.621)"/></g><path id="Path_162" d="M213.051,206.011s-4.62,13.38-2.132,23.791a20.351,20.351,0,0,0,11.605,13.851s-6.752,2.379-5.234,6.038,7.337,1.3,9.236.119a12.583,12.583,0,0,0,4.615-7.1,17,17,0,0,0,.238-3.669s7.694-.828,12.9-5.091c0,0,4.62,3.669,7.937,2.96s8.051-6.633,7.575-11.957-3.545-5.32-5.42-4.511a7.613,7.613,0,0,0-2.608,1.656s2.722-3.331,0-7.932a10.349,10.349,0,0,0-7.58-4.972s-1.427-7.58-5.681-10.421S219.089,192.988,213.051,206.011Z" class="cls-9" data-name="Path 162" transform="translate(-137.685 -145.871)"/><path id="Path_163" d="M293.539,250.52s-2.484,1.661-3.669,6.752" class="cls-9" data-name="Path 163" transform="translate(-179.454 -174.279)"/><path id="Path_164" d="M304.32,252.847a1.345,1.345,0,1,1-.709-1.989A1.512,1.512,0,0,1,304.32,252.847Z" class="cls-1" data-name="Path 164" transform="translate(-185.673 -174.427)"/><path id="Path_165" d="M309.468,256.087a1.345,1.345,0,1,1-.709-1.989A1.512,1.512,0,0,1,309.468,256.087Z" class="cls-1" data-name="Path 165" transform="translate(-188.37 -176.125)"/><path id="Path_166" d="M311.413,261.557a.98.98,0,1,1-.519-1.427A1.1,1.1,0,0,1,311.413,261.557Z" class="cls-1" data-name="Path 166" transform="translate(-189.791 -179.287)"/><path id="Path_167" d="M301.3,265.077a2.661,2.661,0,1,1-.728-4.059A2.944,2.944,0,0,1,301.3,265.077Z" class="cls-1" data-name="Path 167" transform="translate(-182.806 -179.638)"/><path id="Path_168" d="M236.12,295.81a7.138,7.138,0,0,0,5.091.357" class="cls-9" data-name="Path 168" transform="translate(-151.28 -198.018)"/><path id="Path_169" d="M225.17,304.721s.476-2.013,3.431-3.431" class="cls-9" data-name="Path 169" transform="translate(-145.54 -200.891)"/><path id="Path_170" d="M231.39,307.674a10.341,10.341,0,0,1,3.2-4.144" class="cls-9" data-name="Path 170" transform="translate(-148.801 -202.065)"/><path id="Path_171" d="M93.716,164.318a4.083,4.083,0,0,1-1.532-3.374V149.663h-29.1a4.934,4.934,0,0,1-3.807-1.58,5.329,5.329,0,0,1-1.456-3.73,5.672,5.672,0,0,1,.952-3.164l27.874-43.8q3.14-4.849,8.346-4.849a7.461,7.461,0,0,1,5.106,1.789,6.67,6.67,0,0,1,2.041,5.305v42.582h7.4a3.493,3.493,0,0,1,2.755,1.094,4.054,4.054,0,0,1,0,5.263,3.492,3.492,0,0,1-2.755,1.094h-7.456v11.282a4.135,4.135,0,0,1-1.48,3.374,5.234,5.234,0,0,1-3.421,1.223,5.41,5.41,0,0,1-3.469-1.223Zm-1.551-22.107V103L67.759,142.211Z" class="cls-4" data-name="Path 171" transform="translate(-57.819 -91.465)"/><path id="Path_172" d="M201.313,163.372a20.184,20.184,0,0,1-7.38-5.515,28.549,28.549,0,0,1-4.644-8.4,48.685,48.685,0,0,1-2.527-10.159,84.142,84.142,0,0,1-.714-11.387q0-37.623,25.695-37.623t25.633,37.623a87.045,87.045,0,0,1-.69,11.334,47.684,47.684,0,0,1-2.5,10.159,28.55,28.55,0,0,1-4.644,8.4,20.394,20.394,0,0,1-7.38,5.539,24.572,24.572,0,0,1-10.416,2.094A24.857,24.857,0,0,1,201.313,163.372Zm15.493-7.2a12.035,12.035,0,0,0,3.83-2.6,15.113,15.113,0,0,0,2.7-4.006,28.484,28.484,0,0,0,1.813-4.853,39.673,39.673,0,0,0,1.047-5.539q.385-3.093.514-5.667t.124-5.591q0-3.164-.124-5.843t-.538-5.748a43.584,43.584,0,0,0-1.071-5.539,26.923,26.923,0,0,0-1.813-4.8,14.921,14.921,0,0,0-2.707-3.935,11.652,11.652,0,0,0-3.807-2.527,14.037,14.037,0,0,0-10.111,0,11.515,11.515,0,0,0-3.778,2.5,15.226,15.226,0,0,0-2.7,3.907,24.267,24.267,0,0,0-1.789,4.773,45.391,45.391,0,0,0-1.047,5.567q-.414,3.112-.538,5.8t-.128,5.843q0,3.012.128,5.615t.509,5.71a40.389,40.389,0,0,0,1.047,5.539,28.439,28.439,0,0,0,1.794,4.853,14.985,14.985,0,0,0,2.679,3.983,11.834,11.834,0,0,0,3.807,2.579,13.471,13.471,0,0,0,10.159,0Z" class="cls-4" data-name="Path 172" transform="translate(-125.033 -90.29)"/><path id="Path_173" d="M347.036,164.317a4.083,4.083,0,0,1-1.532-3.374V149.662H316.4a4.934,4.934,0,0,1-3.807-1.58,5.329,5.329,0,0,1-1.456-3.73,5.672,5.672,0,0,1,.952-3.164l27.874-43.8q3.112-4.849,8.322-4.849a7.461,7.461,0,0,1,5.134,1.789,6.67,6.67,0,0,1,2.041,5.305V142.21h7.4a3.493,3.493,0,0,1,2.755,1.094,4.054,4.054,0,0,1,0,5.263,3.493,3.493,0,0,1-2.755,1.094h-7.461v11.282a4.135,4.135,0,0,1-1.48,3.374,5.234,5.234,0,0,1-3.421,1.223,5.41,5.41,0,0,1-3.469-1.223ZM345.5,142.21V103L321.1,142.21Z" class="cls-4" data-name="Path 173" transform="translate(-190.603 -91.464)"/><path id="Path_174" d="M189.518,202.483s-4.972,6.985-5.681,14.089.119,11.839,2.251,13.618a3.487,3.487,0,0,0,5.443-.595c1.185-1.661-.709-7.461-.709-7.461a39.7,39.7,0,0,1,5.091-9.469c3.079-3.907,3.669-4.5,3.669-4.5S194.252,202.126,189.518,202.483Z" class="cls-5" data-name="Path 174" transform="translate(-123.744 -149.091)"/><g id="Group_65" class="cls-15" data-name="Group 65" transform="translate(59.844 53.377)"><path id="Path_175" d="M192.879,202.483A38.424,38.424,0,0,0,190,207.517a18.524,18.524,0,0,1,8.408,6.357c.285-.414.58-.823.885-1.209,3.079-3.907,3.669-4.5,3.669-4.5S197.613,202.126,192.879,202.483Z" class="cls-7" data-name="Path 175" transform="translate(-186.949 -202.468)"/><path id="Path_176" d="M192.879,202.483A38.424,38.424,0,0,0,190,207.517a18.524,18.524,0,0,1,8.408,6.357c.285-.414.58-.823.885-1.209,3.079-3.907,3.669-4.5,3.669-4.5S197.613,202.126,192.879,202.483Z" class="cls-12" data-name="Path 176" transform="translate(-186.949 -202.468)"/></g><path id="Path_178" d="M189.518,202.483s-4.972,6.985-5.681,14.089.119,11.839,2.251,13.618a3.487,3.487,0,0,0,5.443-.595c1.185-1.661-.709-7.461-.709-7.461a39.7,39.7,0,0,1,5.091-9.469c3.079-3.907,3.669-4.5,3.669-4.5S194.252,202.126,189.518,202.483Z" class="cls-9" data-name="Path 178" transform="translate(-123.744 -149.091)"/><path id="Path_179" d="M187.92,255.378a13.147,13.147,0,0,1-.833-4.858" class="cls-9" data-name="Path 179" transform="translate(-125.577 -174.279)"/><path id="Path_180" d="M194.119,256.218a12.42,12.42,0,0,1-1.3-5.448" class="cls-9" data-name="Path 180" transform="translate(-128.583 -174.41)"/><path id="Path_181" d="M191.815,223.878c0-1.247-2.379-3.683-5.686-4.758a28.071,28.071,0,0,0-1.1,3.554,13.957,13.957,0,0,1,3.707,1.185C190.512,224.825,191.815,225.3,191.815,223.878Z" class="cls-13" data-name="Path 181" transform="translate(-124.5 -157.819)"/><path id="Path_182" d="M193.113,203.39A40.008,40.008,0,0,0,191,207.011a11.384,11.384,0,0,1,2.855,1.19c3.669,2.127,4.378,2.379,3.2-.714A8.233,8.233,0,0,0,193.113,203.39Z" class="cls-13" data-name="Path 182" transform="translate(-127.629 -149.574)"/><path id="Path_183" d="M267.506,195.25s5.634,6.462,7.037,13.466,1.047,11.8-.9,13.77a3.491,3.491,0,0,1-5.477-.057c-1.342-1.537,0-7.489,0-7.489a39.79,39.79,0,0,0-6-8.931c-3.445-3.588-4.1-4.116-4.1-4.116S262.757,195.359,267.506,195.25Z" class="cls-5" data-name="Path 183" transform="translate(-162.786 -145.307)"/><g id="Group_66" class="cls-16" data-name="Group 66" transform="translate(95.284 49.943)"><path id="Path_184" d="M267.479,195.25c-4.758.109-9.459,6.662-9.459,6.662s.647.533,4.1,4.116a25.231,25.231,0,0,1,1.818,2.141,20.056,20.056,0,0,1,7.456-7.28A38.8,38.8,0,0,0,267.479,195.25Z" class="cls-7" data-name="Path 184" transform="translate(-258.044 -195.25)"/><path id="Path_185" d="M267.479,195.25c-4.758.109-9.459,6.662-9.459,6.662s.647.533,4.1,4.116a25.231,25.231,0,0,1,1.818,2.141,20.056,20.056,0,0,1,7.456-7.28A38.8,38.8,0,0,0,267.479,195.25Z" class="cls-12" data-name="Path 185" transform="translate(-258.044 -195.25)"/></g><path id="Path_187" d="M267.506,195.25s5.634,6.462,7.037,13.466,1.047,11.8-.9,13.77a3.491,3.491,0,0,1-5.477-.057c-1.342-1.537,0-7.489,0-7.489a39.79,39.79,0,0,0-6-8.931c-3.445-3.588-4.1-4.116-4.1-4.116S262.757,195.359,267.506,195.25Z" class="cls-9" data-name="Path 187" transform="translate(-162.786 -145.307)"/><path id="Path_188" d="M290.79,247.081a13.1,13.1,0,0,0,.352-4.911" class="cls-9" data-name="Path 188" transform="translate(-179.937 -169.902)"/><path id="Path_189" d="M284.25,248.518a12.333,12.333,0,0,0,.766-5.548" class="cls-9" data-name="Path 189" transform="translate(-176.508 -170.321)"/><path id="Path_190" d="M277.285,216.252c-.119-1.242,2.008-3.9,5.2-5.272a27.882,27.882,0,0,1,1.427,3.426,14.241,14.241,0,0,0-3.569,1.546C278.674,217.071,277.427,217.651,277.285,216.252Z" class="cls-13" data-name="Path 190" transform="translate(-172.855 -153.553)"/><path id="Path_191" d="M274.309,196.08a38.731,38.731,0,0,1,2.446,3.374,11.452,11.452,0,0,0-2.736,1.461c-3.44,2.484-4.125,2.788-3.25-.39A8.406,8.406,0,0,1,274.309,196.08Z" class="cls-13" data-name="Path 191" transform="translate(-169.261 -145.742)"/><path id="Path_192" d="M183.819,167.555s-1.466,4.944-.914,6.957,3.112.186,5.677,2.379,4.939,6.152,14.651,6.885,15.574-4.506,17.606-7.437,1.832-6.409,5.31-6.59.552-6.961-.547-8.06c0,0,6.776-10.073,6.776-12.638s-6.409-2.017-14.275.366c0,0-5.862-3.117-16.487-1.285s-13.737,4.949-13.737,4.949-13.19,1.646-14.1,3.293S175.577,164.99,183.819,167.555Z" class="cls-5" data-name="Path 192" transform="translate(-118.511 -120.206)"/><g id="Group_67" class="cls-17" data-name="Group 67" transform="translate(55.094 27.156)"><path id="Path_193" d="M226.111,178.066c3.483-.186.552-6.961-.547-8.06,0,0,1.29-1.9,2.741-4.282-3.935-2.056-7.8-3.2-8.827-2.041-2.213,2.484-1.009,7.242,0,11.9s-3.021,6.638-5.838,10.663-6.838-.4-6.838-.4c-1.427,5.838-7.447,2.013-7.447,2.013-4.625-1.427-12.471-6.033-10.863-9.255s2.013-6.238-.8-8.85-14.051-4.787-14.051-4.787h0c-.59,1.984,2.26,8.484,10.164,10.944,0,0-1.466,4.944-.914,6.957s3.112.186,5.677,2.379,4.939,6.152,14.651,6.885,15.574-4.506,17.606-7.437S222.628,178.247,226.111,178.066Z" class="cls-7" data-name="Path 193" transform="translate(-173.583 -155.675)"/><path id="Path_194" d="M226.111,178.066c3.483-.186.552-6.961-.547-8.06,0,0,1.29-1.9,2.741-4.282-3.935-2.056-7.8-3.2-8.827-2.041-2.213,2.484-1.009,7.242,0,11.9s-3.021,6.638-5.838,10.663-6.838-.4-6.838-.4c-1.427,5.838-7.447,2.013-7.447,2.013-4.625-1.427-12.471-6.033-10.863-9.255s2.013-6.238-.8-8.85-14.051-4.787-14.051-4.787h0c-.59,1.984,2.26,8.484,10.164,10.944,0,0-1.466,4.944-.914,6.957s3.112.186,5.677,2.379,4.939,6.152,14.651,6.885,15.574-4.506,17.606-7.437S222.628,178.247,226.111,178.066Z" class="cls-12" data-name="Path 194" transform="translate(-173.583 -155.675)"/><path id="Path_195" d="M240.675,195.05c.138,1.161-2.441,2.412-5.748,2.8s-6.1-.243-6.243-1.427,2.441-2.408,5.753-2.793S240.542,193.894,240.675,195.05Z" class="cls-7" data-name="Path 195" transform="translate(-202.473 -171.555)"/><path id="Path_196" d="M240.675,195.05c.138,1.161-2.441,2.412-5.748,2.8s-6.1-.243-6.243-1.427,2.441-2.408,5.753-2.793S240.542,193.894,240.675,195.05Z" class="cls-12" data-name="Path 196" transform="translate(-202.473 -171.555)"/></g><path id="Path_198" d="M183.819,167.555s-1.466,4.944-.914,6.957,3.112.186,5.677,2.379,4.939,6.152,14.651,6.885,15.574-4.506,17.606-7.437,1.832-6.409,5.31-6.59.552-6.961-.547-8.06c0,0,6.776-10.073,6.776-12.638s-6.409-2.017-14.275.366c0,0-5.862-3.117-16.487-1.285s-13.737,4.949-13.737,4.949-13.19,1.646-14.1,3.293S175.577,164.99,183.819,167.555Z" class="cls-3" data-name="Path 198" transform="translate(-118.511 -120.206)"/><path id="Path_199" d="M271.314,154.79c-4.758,3.2-3.079,6.4-.952,8.17,1.3,1.085,3.393.952,4.825.647h0s6.776-10.073,6.776-12.638A25.721,25.721,0,0,0,271.314,154.79Z" class="cls-18" data-name="Path 199" transform="translate(-168.121 -122.096)"/><path id="Path_200" d="M173.627,166.785c-.59,1.984,2.26,8.484,10.164,10.944,0,0,6.033-.59,4.021-5.443C185.932,167.755,176.43,166.628,173.627,166.785Z" class="cls-18" data-name="Path 200" transform="translate(-118.484 -130.379)"/><path id="Path_201" d="M230.429,148.4c-.623.109-1.223.224-1.8.338.952,4.806,2.517,12.809,3.916,12.809s2.47-8.774,2.926-13.689A39.016,39.016,0,0,0,230.429,148.4Z" class="cls-18" data-name="Path 201" transform="translate(-147.354 -120.467)"/><path id="Path_202" d="M217.166,161.747c1.456-.856,1.237-7.294,1-10.787a39.077,39.077,0,0,0-4.43,1.385C214.268,155.614,215.61,162.661,217.166,161.747Z" class="cls-18" data-name="Path 202" transform="translate(-139.549 -122.092)"/><path id="Path_203" d="M248.614,157.126c1.489.523,2.327-4.83,2.8-8.95a29.656,29.656,0,0,0-4.549-.385C246.815,151.173,247,156.559,248.614,157.126Z" class="cls-18" data-name="Path 203" transform="translate(-156.908 -120.43)"/><path id="Path_204" d="M241.59,206.147a5.605,5.605,0,0,0-4.125.509.409.409,0,0,0-.076.652l2.527,2.379a.409.409,0,0,0,.652-.128l1.294-2.855a.409.409,0,0,0-.271-.557Z" class="cls-13" data-name="Path 204" transform="translate(-151.878 -150.923)"/><path id="Path_205" d="M231.451,196.527c.347.918.209,1.822-.309,2.018s-1.223-.385-1.575-1.3-.209-1.822.309-2.018S231.1,195.614,231.451,196.527Z" class="cls-4" data-name="Path 205" transform="translate(-147.743 -145.276)"/><path id="Path_206" d="M248.161,194.9c-.181.952.114,1.832.661,1.932s1.137-.595,1.318-1.561-.114-1.827-.661-1.932S248.342,193.938,248.161,194.9Z" class="cls-4" data-name="Path 206" transform="translate(-157.564 -144.3)"/><path id="Path_207" d="M237.1,213.479s-3.378,4.587-6.457-.029" class="cls-9" data-name="Path 207" transform="translate(-148.407 -154.847)"/><path id="Path_208" d="M242.84,211.238s2.246,2.327,4.616,1.023a2.208,2.208,0,0,0,.952-3.331" class="cls-9" data-name="Path 208" transform="translate(-154.802 -152.478)"/><path id="Path_209" d="M221.19,187.7s.828-2.96,4.734-2.251" class="cls-19" data-name="Path 209" transform="translate(-143.454 -140.113)"/><path id="Path_210" d="M246.07,183.977a4.614,4.614,0,0,1,5.681,1.066" class="cls-19" data-name="Path 210" transform="translate(-156.495 -139.111)"/><line id="Line_12" x2="2.841" y2=".709" class="cls-20" data-name="Line 12" transform="translate(75.485 55.524)"/><line id="Line_13" x1="2.484" y2=".471" class="cls-20" data-name="Line 13" transform="translate(75.485 57.299)"/><line id="Line_14" x1="1.775" y2=".947" class="cls-20" data-name="Line 14" transform="translate(76.67 58.603)"/><line id="Line_15" x2="2.489" y1=".595" class="cls-20" data-name="Line 15" transform="translate(96.441 53.625)"/><line id="Line_16" x2="1.656" class="cls-20" data-name="Line 16" transform="translate(96.916 55.405)"/><line id="Line_17" x2="2.251" y2=".59" class="cls-20" data-name="Line 17" transform="translate(97.269 56.59)"/></g><text id="OOPS..._SOMETHING_WENT_WRONG" class="cls-21" data-name="OOPS... SOMETHING WENT WRONG" transform="translate(3.117 81.087)"><tspan x="0" y="0">OOPS...</tspan><tspan x="0" y="9">SOMETHING WENT</tspan><tspan x="0" y="18">WRONG</tspan></text></svg>