<svg xmlns="http://www.w3.org/2000/svg" xmlns:xlink="http://www.w3.org/1999/xlink" width="229.75" height="32" viewBox="0 0 229.75 32">
  <defs>
    <style>
      .cls-1 {
        fill: url(#linear-gradient);
      }

      .cls-2, .cls-3 {
        fill: #fff;
      }

      .cls-2 {
        font-size: 14px;
        font-family: Montserrat-Regular, Montserrat;
      }
    </style>
    <linearGradient id="linear-gradient" y1="0.5" x2="1" y2="0.5" gradientUnits="objectBoundingBox">
      <stop offset="0" stop-color="#5f49cc"/>
      <stop offset="1" stop-color="#696ce4"/>
    </linearGradient>
  </defs>
  <g id="Group_182" data-name="Group 182" transform="translate(-36)">
    <rect id="Rectangle_17" data-name="Rectangle 17" class="cls-1" width="229.75" height="32" rx="8" transform="translate(36)"/>
    <text id="Get_Full_Marketing_Toolkit" data-name="Get Full Marketing Toolkit" class="cls-2" transform="translate(73.75 21)"><tspan x="0" y="0">Get Full Marketing Toolkit</tspan></text>
    <path id="Icon_awesome-gem" data-name="Icon awesome-gem" class="cls-3" d="M13.275,0,15.75,4.375H12.986L11.093,0Zm-3.5,0,1.892,4.375H4.082L5.975,0Zm-7.3,0H4.657L2.764,4.375H0ZM0,5.25H2.754l3.363,6.882a.083.083,0,0,1-.137.09Zm4.052,0H11.7l-3.746,8.7a.082.082,0,0,1-.15,0Zm5.581,6.882L13,5.25H15.75L9.77,12.22a.082.082,0,0,1-.137-.087Z" transform="translate(48 9)"/>
  </g>
</svg>
