<svg xmlns="http://www.w3.org/2000/svg" id="Icon_feather-cpu" width="16" height="16" data-name="Icon feather-cpu" viewBox="0 0 16 16"><defs><style>.cls-1{fill:none;stroke:#696ce4;stroke-linecap:round;stroke-linejoin:round;stroke-width:1.333px}</style></defs><path id="Path_222" d="M4,2.667h8A1.333,1.333,0,0,1,13.333,4v8A1.333,1.333,0,0,1,12,13.333H4A1.333,1.333,0,0,1,2.667,12V4A1.333,1.333,0,0,1,4,2.667Z" class="cls-1" data-name="Path 222"/><path id="Path_223" d="M6,6h4v4H6Z" class="cls-1" data-name="Path 223"/><path id="Path_224" d="M6,.667v2" class="cls-1" data-name="Path 224"/><path id="Path_225" d="M10,.667v2" class="cls-1" data-name="Path 225"/><path id="Path_226" d="M6,13.333v2" class="cls-1" data-name="Path 226"/><path id="Path_227" d="M10,13.333v2" class="cls-1" data-name="Path 227"/><path id="Path_228" d="M13.333,6h2" class="cls-1" data-name="Path 228"/><path id="Path_229" d="M13.333,9.333h2" class="cls-1" data-name="Path 229"/><path id="Path_230" d="M.667,6h2" class="cls-1" data-name="Path 230"/><path id="Path_231" d="M.667,9.333h2" class="cls-1" data-name="Path 231"/></svg>