<svg id="Icon_feather-cpu" data-name="Icon feather-cpu" xmlns="http://www.w3.org/2000/svg" width="16" height="16" viewBox="0 0 16 16">
  <defs>
    <style>
      .cls-1 {
        fill: none;
        stroke: #696ce4;
        stroke-linecap: round;
        stroke-linejoin: round;
        stroke-width: 1.333px;
      }
    </style>
  </defs>
  <path id="Path_222" data-name="Path 222" class="cls-1" d="M4,2.667h8A1.333,1.333,0,0,1,13.333,4v8A1.333,1.333,0,0,1,12,13.333H4A1.333,1.333,0,0,1,2.667,12V4A1.333,1.333,0,0,1,4,2.667Z"/>
  <path id="Path_223" data-name="Path 223" class="cls-1" d="M6,6h4v4H6Z"/>
  <path id="Path_224" data-name="Path 224" class="cls-1" d="M6,.667v2"/>
  <path id="Path_225" data-name="Path 225" class="cls-1" d="M10,.667v2"/>
  <path id="Path_226" data-name="Path 226" class="cls-1" d="M6,13.333v2"/>
  <path id="Path_227" data-name="Path 227" class="cls-1" d="M10,13.333v2"/>
  <path id="Path_228" data-name="Path 228" class="cls-1" d="M13.333,6h2"/>
  <path id="Path_229" data-name="Path 229" class="cls-1" d="M13.333,9.333h2"/>
  <path id="Path_230" data-name="Path 230" class="cls-1" d="M.667,6h2"/>
  <path id="Path_231" data-name="Path 231" class="cls-1" d="M.667,9.333h2"/>
</svg>
