<svg xmlns="http://www.w3.org/2000/svg" width="15.75" height="14" viewBox="0 0 15.75 14">
  <defs>
    <style>
      .cls-1 {
        fill: #fff;
      }
    </style>
  </defs>
  <path id="Icon_awesome-gem" data-name="Icon awesome-gem" class="cls-1" d="M13.275,0,15.75,4.375H12.986L11.093,0Zm-3.5,0,1.892,4.375H4.082L5.975,0Zm-7.3,0H4.657L2.764,4.375H0ZM0,5.25H2.754l3.363,6.882a.083.083,0,0,1-.137.09Zm4.052,0H11.7l-3.746,8.7a.082.082,0,0,1-.15,0Zm5.581,6.882L13,5.25H15.75L9.77,12.22a.082.082,0,0,1-.137-.087Z"/>
</svg>
