<svg id="Component_4_2" data-name="Component 4 – 2" xmlns="http://www.w3.org/2000/svg" width="32" height="32" viewBox="0 0 32 32">
  <defs>
    <style>
      .cls-1, .cls-4 {
        fill: none;
      }

      .cls-1 {
        stroke: #696ce4;
        stroke-width: 1.3px;
      }

      .cls-2 {
        fill: #696ce4;
      }

      .cls-3 {
        stroke: none;
      }
    </style>
  </defs>
  <g id="Rectangle_17" data-name="Rectangle 17" class="cls-1">
    <rect class="cls-3" width="32" height="32" rx="8"/>
    <rect class="cls-4" x="0.65" y="0.65" width="30.7" height="30.7" rx="7.35"/>
  </g>
  <path id="Path_452" data-name="Path 452" class="cls-2" d="M-.511-2.409A2.661,2.661,0,0,1-.3-3.5a2.847,2.847,0,0,1,.508-.793q.3-.324.793-.77a6.459,6.459,0,0,0,.909-.932A1.541,1.541,0,0,0,2.2-6.939a1.454,1.454,0,0,0-.585-1.209A2.578,2.578,0,0,0,0-8.6,3.3,3.3,0,0,0-2.76-7.385l-1.125-.8A4.226,4.226,0,0,1-2.229-9.465,5.718,5.718,0,0,1,.105-9.912,4.376,4.376,0,0,1,2.77-9.18,2.367,2.367,0,0,1,3.756-7.17a2.814,2.814,0,0,1-.208,1.117,2.891,2.891,0,0,1-.5.809q-.293.324-.786.77a6.252,6.252,0,0,0-.932,1,1.815,1.815,0,0,0-.3,1.063Zm.786,3.5A.971.971,0,0,1-.442.8.953.953,0,0,1-.727.1.953.953,0,0,1-.442-.6.971.971,0,0,1,.275-.884.946.946,0,0,1,.983-.6a.967.967,0,0,1,.277.7A.953.953,0,0,1,.976.8.953.953,0,0,1,.275,1.088Z" transform="translate(16.064 20.412)"/>
</svg>
