<svg xmlns="http://www.w3.org/2000/svg" width="120" height="120" viewBox="0 0 120 120"><defs><style>.cls-1{fill:#f1f2ff}.cls-2{fill:#696ce4}</style></defs><g id="Group_37" data-name="Group 37" transform="translate(-843 -1337)"><circle id="Ellipse_18" cx="60" cy="60" r="60" class="cls-1" data-name="Ellipse 18" transform="translate(843 1337)"/><g id="Icon_feather-more-horizontal" data-name="Icon feather-more-horizontal" transform="translate(872.432 1385.924)"><path id="Path_213" d="M27.576,22.038A5.538,5.538,0,1,1,22.038,16.5,5.538,5.538,0,0,1,27.576,22.038Z" class="cls-2" data-name="Path 213" transform="translate(8.091 -10.962)"/><path id="Path_214" d="M38.076,22.038A5.538,5.538,0,1,1,32.538,16.5,5.538,5.538,0,0,1,38.076,22.038Z" class="cls-2" data-name="Path 214" transform="translate(22.183 -16.5)"/><path id="Path_215" d="M17.076,22.038A5.538,5.538,0,1,1,11.538,16.5,5.538,5.538,0,0,1,17.076,22.038Z" class="cls-2" data-name="Path 215" transform="translate(-6 -5.424)"/></g></g></svg>