<svg xmlns="http://www.w3.org/2000/svg" width="16.418" height="16.448" viewBox="0 0 16.418 16.448">
  <defs>
    <style>
      .cls-1 {
        fill: none;
        stroke: #696ce4;
        stroke-linecap: round;
        stroke-linejoin: round;
        stroke-width: 1.5px;
      }
    </style>
  </defs>
  <path id="Icon_feather-phone" data-name="Icon feather-phone" class="cls-1" d="M16.5,12.69v2.25a1.5,1.5,0,0,1-1.635,1.5,14.842,14.842,0,0,1-6.472-2.3,14.625,14.625,0,0,1-4.5-4.5,14.843,14.843,0,0,1-2.3-6.5A1.5,1.5,0,0,1,3.083,1.5h2.25a1.5,1.5,0,0,1,1.5,1.29A9.63,9.63,0,0,0,7.357,4.9,1.5,1.5,0,0,1,7.02,6.48l-.953.952a12,12,0,0,0,4.5,4.5l.952-.953a1.5,1.5,0,0,1,1.583-.337,9.63,9.63,0,0,0,2.108.525A1.5,1.5,0,0,1,16.5,12.69Z" transform="translate(-0.833 -0.75)"/>
</svg>
